PathFileType	4	(X/Y/Z)	/home/nbianco/projects/addbio/data/HamnerRunning2013/Processed/subject19//results/MarkerData/run400.trc
DataRate	CameraRate	NumFrames	NumMarkers	Units	OrigDataRate	OrigDataStartFrame	OrigNumFrames
120.005	120.005	9	42	m	120.005	30	244
Frame#	Time	C7			CLAV			LACR			LASI			LCAL			LFAradius			LFAsuperior			LFAulna			LLEL			LMEL			LMT5			LPSI			LTB1			LTB2			LTB3			LTH1			LTH2			LTH3			LTOE			LUA1			LUA2			LUA3			RACR			RASI			RCAL			RFAradius			RFAsuperior			RFAulna			RLEL			RMEL			RMT5			RPSI			RTB1			RTB2			RTB3			RTH1			RTH2			RTH3			RTOE			RUA1			RUA2			RUA3		
		X1	Y1	Z1	X2	Y2	Z2	X3	Y3	Z3	X4	Y4	Z4	X5	Y5	Z5	X6	Y6	Z6	X7	Y7	Z7	X8	Y8	Z8	X9	Y9	Z9	X10	Y10	Z10	X11	Y11	Z11	X12	Y12	Z12	X13	Y13	Z13	X14	Y14	Z14	X15	Y15	Z15	X16	Y16	Z16	X17	Y17	Z17	X18	Y18	Z18	X19	Y19	Z19	X20	Y20	Z20	X21	Y21	Z21	X22	Y22	Z22	X23	Y23	Z23	X24	Y24	Z24	X25	Y25	Z25	X26	Y26	Z26	X27	Y27	Z27	X28	Y28	Z28	X29	Y29	Z29	X30	Y30	Z30	X31	Y31	Z31	X32	Y32	Z32	X33	Y33	Z33	X34	Y34	Z34	X35	Y35	Z35	X36	Y36	Z36	X37	Y37	Z37	X38	Y38	Z38	X39	Y39	Z39	X40	Y40	Z40	X41	Y41	Z41	X42	Y42	Z42

31	0.891667	1.06844	1.56479	-0.320745	1.18253	1.48467	-0.319747	1.06492	1.54277	-0.491417	1.13255	1.0577	-0.436148	1.12882	0.288553	-0.381988	0.993688	1.1951	-0.547613	0.859718	1.34248	-0.568387	0.935219	1.16424	-0.560136	0.807079	1.40092	-0.542382	0.808451	1.39874	-0.46827	1.2884	0.164628	-0.455175	0.969363	1.10689	-0.373954	1.36751	0.548705	-0.430551	1.28886	0.46859	-0.471615	1.28125	0.367509	-0.406822	1.13231	0.934484	-0.513487	1.24896	0.892204	-0.487955	1.26593	0.751497	-0.477123	1.31601	0.200235	-0.356379	0.997462	1.51858	-0.526982	0.939705	1.49183	-0.475276	0.928656	1.44006	-0.546244	1.15323	1.53159	-0.149112	1.1274	1.03466	-0.20655	0.528774	0.342919	-0.277117	1.27489	1.22684	-0.169384	1.13167	1.25346	-0.0693193	1.26442	1.1604	-0.16265	1.0366	1.2532	-0.040808	1.00052	1.24839	-0.104834	0.571915	0.133229	-0.234072	0.971951	1.1012	-0.27398	0.832716	0.455878	-0.275898	0.760999	0.444927	-0.209525	0.696353	0.336233	-0.273021	1.01314	0.896483	-0.15295	1.01261	0.738088	-0.191818	0.916929	0.681258	-0.207647	0.604672	0.154361	-0.334511	1.13625	1.45329	-0.0961803	1.13992	1.36364	-0.103904	1.054	1.36838	-0.0723996
32	0.9	1.06825	1.56827	-0.322061	1.18229	1.4884	-0.320984	1.06429	1.54579	-0.49259	1.13196	1.06015	-0.434984	1.15815	0.266917	-0.38023	0.994245	1.20288	-0.54787	0.85788	1.34822	-0.567087	0.93638	1.1708	-0.559822	0.805143	1.40593	-0.540363	0.807431	1.40368	-0.466301	1.32674	0.153981	-0.452122	0.968877	1.11078	-0.373504	1.37161	0.546442	-0.428174	1.3023	0.458849	-0.470454	1.30269	0.357922	-0.404984	1.12803	0.928831	-0.510658	1.24406	0.888021	-0.490318	1.25969	0.747739	-0.47457	1.35133	0.193613	-0.352977	0.996649	1.52256	-0.527613	0.939407	1.49531	-0.475165	0.926995	1.44461	-0.545818	1.15286	1.53576	-0.15057	1.12728	1.03863	-0.205276	0.515894	0.365536	-0.272814	1.27397	1.22945	-0.169922	1.13124	1.2575	-0.0695186	1.26316	1.16317	-0.16272	1.03632	1.25849	-0.040534	0.999643	1.25381	-0.104517	0.55279	0.153651	-0.234268	0.971547	1.10565	-0.273747	0.827308	0.461407	-0.278212	0.757404	0.453489	-0.210152	0.684486	0.350499	-0.273236	1.01221	0.901176	-0.152999	1.01453	0.740899	-0.193179	0.919597	0.682843	-0.208361	0.583824	0.175818	-0.335128	1.13575	1.45839	-0.0972463	1.1399	1.36909	-0.103796	1.05383	1.37327	-0.0730991
33	0.908333	1.0682	1.57113	-0.323485	1.18206	1.49157	-0.322241	1.06386	1.54811	-0.493868	1.13121	1.062	-0.433947	1.18683	0.247797	-0.378952	0.995425	1.20945	-0.548145	0.856771	1.35268	-0.566118	0.938202	1.17613	-0.559684	0.803708	1.40962	-0.538778	0.806779	1.40706	-0.464776	1.36266	0.143777	-0.448115	0.96862	1.11318	-0.372954	1.37363	0.542817	-0.425434	1.31446	0.448697	-0.468877	1.32278	0.348671	-0.402966	1.12321	0.920473	-0.505623	1.23924	0.882668	-0.492576	1.25323	0.74324	-0.473454	1.3841	0.187388	-0.349336	0.995951	1.5253	-0.528661	0.939062	1.49778	-0.475403	0.925817	1.44778	-0.545657	1.15259	1.53903	-0.151918	1.12708	1.04225	-0.203841	0.504848	0.389056	-0.269467	1.27266	1.22949	-0.169847	1.13042	1.26018	-0.0694797	1.261	1.16348	-0.161917	1.03551	1.26303	-0.0404406	0.998133	1.25843	-0.10436	0.534477	0.1754	-0.234318	0.970559	1.10914	-0.27377	0.823144	0.466673	-0.280023	0.754258	0.462506	-0.210693	0.673894	0.365256	-0.273133	1.01224	0.904374	-0.153284	1.01836	0.742667	-0.19561	0.924079	0.683198	-0.209263	0.565079	0.198261	-0.335327	1.13515	1.46226	-0.0983227	1.13951	1.37332	-0.103921	1.05325	1.37731	-0.0738771
34	0.916667	1.06827	1.57328	-0.324979	1.18186	1.494	-0.323486	1.0637	1.54966	-0.49521	1.1304	1.06339	-0.433136	1.21392	0.231187	-0.378012	0.997242	1.21473	-0.548388	0.856438	1.35581	-0.565535	0.94071	1.18017	-0.55968	0.802819	1.41193	-0.537699	0.806543	1.40876	-0.463892	1.39564	0.134354	-0.443065	0.968524	1.11403	-0.372232	1.37366	0.537743	-0.423031	1.32465	0.438413	-0.466926	1.34101	0.339963	-0.400948	1.11812	0.91234	-0.500563	1.23542	0.876823	-0.49438	1.2466	0.738109	-0.47339	1.41401	0.181914	-0.345442	0.995404	1.52688	-0.529995	0.938779	1.49933	-0.475832	0.925119	1.44964	-0.545781	1.15248	1.5414	-0.153255	1.12691	1.04547	-0.202418	0.496529	0.413393	-0.267368	1.27094	1.22714	-0.169129	1.12921	1.26165	-0.0691009	1.25792	1.16152	-0.159995	1.03416	1.26687	-0.0405032	0.996075	1.26235	-0.104352	0.516681	0.198459	-0.233891	0.969447	1.1114	-0.273678	0.820481	0.471709	-0.28108	0.751711	0.472185	-0.211156	0.664949	0.380226	-0.272569	1.01392	0.905601	-0.153662	1.02361	0.743608	-0.198936	0.92995	0.682827	-0.210445	0.548755	0.220917	-0.334567	1.13461	1.46498	-0.0993931	1.13878	1.37635	-0.104276	1.05234	1.38064	-0.0747536
35	0.925	1.06842	1.57466	-0.326505	1.18167	1.4955	-0.324666	1.06386	1.55034	-0.496615	1.12965	1.06443	-0.432497	1.23827	0.21671	-0.377186	0.999704	1.21868	-0.548565	0.856896	1.35755	-0.565371	0.943926	1.18285	-0.559793	0.802515	1.41283	-0.537225	0.806726	1.40887	-0.463731	1.42524	0.126542	-0.437221	0.968289	1.11343	-0.371323	1.37189	0.531204	-0.421056	1.33227	0.428324	-0.464697	1.35665	0.332045	-0.398886	1.11317	0.906485	-0.497384	1.23293	0.87071	-0.495473	1.23973	0.732034	-0.473758	1.4404	0.177984	-0.34134	0.995103	1.52741	-0.531465	0.938687	1.49996	-0.476369	0.92489	1.45028	-0.546199	1.15257	1.54285	-0.154636	1.12684	1.04816	-0.201192	0.491314	0.438304	-0.266623	1.26873	1.22263	-0.167752	1.12754	1.26205	-0.0683047	1.25383	1.15756	-0.156903	1.03224	1.27003	-0.0406756	0.993615	1.26562	-0.104471	0.499755	0.222842	-0.232715	0.968641	1.11222	-0.273112	0.81949	0.47632	-0.281293	0.75014	0.482499	-0.211675	0.657911	0.395173	-0.271589	1.01753	0.904811	-0.153977	1.02975	0.74389	-0.202643	0.9368	0.682	-0.211834	0.53494	0.243378	-0.332638	1.13418	1.46667	-0.10046	1.13778	1.37822	-0.104891	1.05121	1.38332	-0.0757132
36	0.933333	1.06863	1.57528	-0.328035	1.18147	1.49588	-0.325731	1.06436	1.55007	-0.498118	1.12907	1.06515	-0.431952	1.25887	0.203959	-0.37623	1.00281	1.22127	-0.548691	0.858121	1.35785	-0.565641	0.947868	1.18413	-0.560011	0.802808	1.41225	-0.537465	0.807285	1.4076	-0.464253	1.4509	0.121004	-0.431122	0.967673	1.11155	-0.370251	1.36855	0.523432	-0.419032	1.33695	0.418843	-0.462361	1.36895	0.32514	-0.396679	1.10878	0.90328	-0.496726	1.2313	0.864115	-0.495797	1.23237	0.724545	-0.473988	1.4624	0.176093	-0.337303	0.995144	1.52695	-0.532975	0.938881	1.49963	-0.477025	0.925112	1.44979	-0.54692	1.15283	1.54332	-0.156029	1.12696	1.05014	-0.200304	0.489306	0.463466	-0.267091	1.26593	1.21617	-0.165688	1.12527	1.26147	-0.0671329	1.24857	1.15189	-0.152876	1.02973	1.27248	-0.0408961	0.990879	1.26824	-0.104686	0.484681	0.248459	-0.23066	0.968292	1.11161	-0.271983	0.820217	0.480262	-0.280784	0.750008	0.493198	-0.212413	0.653006	0.409929	-0.27043	1.02278	0.902456	-0.154114	1.03632	0.743564	-0.206009	0.944215	0.680755	-0.21325	0.52349	0.265572	-0.329726	1.13385	1.46743	-0.101535	1.13656	1.37899	-0.105777	1.04994	1.38531	-0.0767065
37	0.941667	1.06888	1.57515	-0.329561	1.18121	1.49508	-0.326663	1.06515	1.54882	-0.499762	1.1287	1.06546	-0.431511	1.27502	0.192819	-0.374884	1.00657	1.2225	-0.54882	0.860048	1.35663	-0.566355	0.952543	1.184	-0.560315	0.803677	1.41011	-0.538497	0.808152	1.40511	-0.465385	1.47173	0.11764	-0.425409	0.966704	1.10859	-0.369054	1.36392	0.51505	-0.416477	1.33867	0.41037	-0.460109	1.3775	0.319359	-0.394384	1.10533	0.901757	-0.498034	1.22951	0.856632	-0.495505	1.22419	0.715466	-0.473635	1.47928	0.17583	-0.333774	0.99557	1.52548	-0.534521	0.939392	1.49826	-0.477886	0.925758	1.44822	-0.547969	1.15319	1.5428	-0.157345	1.12732	1.05129	-0.199798	0.490593	0.488536	-0.268487	1.26235	1.20793	-0.16289	1.12224	1.25993	-0.0657754	1.24197	1.14474	-0.148324	1.0266	1.27422	-0.0411111	0.987909	1.27018	-0.104957	0.472577	0.275074	-0.227746	0.968235	1.10972	-0.270532	0.822638	0.483381	-0.279859	0.751759	0.503833	-0.213462	0.650467	0.424373	-0.269403	1.02887	0.899253	-0.154039	1.04296	0.742598	-0.20834	0.951807	0.678989	-0.214505	0.514176	0.287598	-0.326249	1.13354	1.46735	-0.102617	1.13512	1.37869	-0.10688	1.04859	1.38654	-0.0776721
38	0.95	1.06916	1.57426	-0.331084	1.18084	1.49313	-0.327484	1.06614	1.54657	-0.501549	1.12856	1.06519	-0.431238	1.28633	0.18343	-0.372879	1.01096	1.22241	-0.548987	0.862579	1.35384	-0.56752	0.957959	1.18249	-0.560682	0.80506	1.40632	-0.540341	0.809264	1.40144	-0.467107	1.4867	0.115537	-0.420583	0.965645	1.1048	-0.367788	1.35826	0.506964	-0.413481	1.33772	0.403073	-0.458043	1.38228	0.314571	-0.392229	1.10298	0.900551	-0.50026	1.22653	0.84795	-0.494845	1.215	0.705244	-0.472377	1.49075	0.175976	-0.331079	0.996343	1.52291	-0.536187	0.94018	1.49578	-0.479067	0.926786	1.44555	-0.549383	1.15355	1.54129	-0.158509	1.12794	1.0515	-0.199602	0.495294	0.513157	-0.270571	1.25782	1.19807	-0.159318	1.11831	1.25742	-0.0644692	1.23397	1.1363	-0.143595	1.0229	1.27522	-0.0412981	0.984644	1.27138	-0.105249	0.464166	0.302377	-0.22412	0.968179	1.10681	-0.269113	0.826709	0.48566	-0.278849	0.755728	0.51384	-0.214787	0.650496	0.438391	-0.268734	1.03491	0.895838	-0.153821	1.04939	0.740945	-0.209228	0.959313	0.676557	-0.21548	0.506903	0.309541	-0.322587	1.13317	1.46639	-0.10367	1.1334	1.37735	-0.108086	1.04712	1.38693	-0.078541
39	0.958333	1.0694	1.57255	-0.332613	1.18038	1.49013	-0.328229	1.06721	1.54331	-0.50342	1.1286	1.06412	-0.431143	1.2926	0.175801	-0.369964	1.01598	1.22102	-0.549154	0.865609	1.34942	-0.569155	0.96412	1.17966	-0.561116	0.806876	1.40084	-0.542958	0.810583	1.39644	-0.46946	1.49496	0.113373	-0.416787	0.964767	1.10045	-0.366533	1.3519	0.499936	-0.410759	1.33457	0.396697	-0.456086	1.38353	0.310296	-0.390363	1.10171	0.898649	-0.502463	1.22185	0.838078	-0.493972	1.205	0.694889	-0.470123	1.49701	0.175198	-0.329147	0.997369	1.51919	-0.538088	0.941139	1.49213	-0.480685	0.928152	1.44168	-0.551206	1.15374	1.53882	-0.15949	1.12872	1.05077	-0.199559	0.50342	0.536932	-0.273273	1.25221	1.18671	-0.154978	1.11344	1.25393	-0.0633412	1.22459	1.12666	-0.138819	1.01869	1.27546	-0.0414741	0.980989	1.2718	-0.105536	0.459591	0.330039	-0.220017	0.967933	1.1031	-0.267942	0.832388	0.487179	-0.277929	0.76205	0.522691	-0.21622	0.65317	0.451859	-0.268455	1.04023	0.892528	-0.153587	1.05549	0.738572	-0.208683	0.966692	0.673319	-0.216142	0.501858	0.331344	-0.318901	1.1326	1.46449	-0.104633	1.13127	1.37496	-0.109257	1.04545	1.38642	-0.0792381
